# xmcd
#
# Track frame offsets: 
#        150
#        20525
#        43687
#        60037
#        86212
#        111187
#        126825
#        149362
#        164587
#        189787
#        207237
#        224437
#
# Disc length: 3251 seconds
#
# Revision: 4
# Processed by: cddbd v1.5.2PL0 Copyright (c) Steve Scherf et al.
# Submitted via: ExactAudioCopy v0.95b4
#
DISCID=aa0cb10c
DTITLE=Peter Green - Baby When The Sun Goes Down [CD1]
DYEAR=2001
DGENRE=Blues
TTITLE0=Loser Two Times
TTITLE1=Cryin' Won't Bring You Back
TTITLE2=Proud Pinto
TTITLE3=Got To See Her Tonight
TTITLE4=Last Train To San Antone
TTITLE5=What Am I Doing Here
TTITLE6=Carry My Love
TTITLE7=Bullet In The Sky
TTITLE8=Baby When The Sun Goes Down
TTITLE9=Walkin' The Road
TTITLE10=In The Skies
TTITLE11=Dust My Broom
EXTD=
EXTT0=
EXTT1=
EXTT2=
EXTT3=
EXTT4=
EXTT5=
EXTT6=
EXTT7=
EXTT8=
EXTT9=
EXTT10=
EXTT11=
PLAYORDER=
